<svg width="23" height="24" viewBox="0 0 23 24" fill="none" xmlns="http://www.w3.org/2000/svg">
<path d="M16.7085 1.16699H6.29183C3.41535 1.16699 1.0835 3.59212 1.0835 6.58366V17.417C1.0835 20.4085 3.41535 22.8337 6.29183 22.8337H16.7085C19.585 22.8337 21.9168 20.4085 21.9168 17.417V6.58366C21.9168 3.59212 19.585 1.16699 16.7085 1.16699Z" stroke="white" stroke-width="1.5" stroke-linecap="round" stroke-linejoin="round"/>
<path d="M17.2292 6.04199H17.2396M15.6667 11.3178C15.7952 12.2194 15.6472 13.1402 15.2435 13.9493C14.8399 14.7583 14.2012 15.4144 13.4184 15.8241C12.6355 16.2339 11.7484 16.3766 10.8831 16.2318C10.0179 16.0869 9.21852 15.6621 8.59881 15.0176C7.9791 14.3731 7.57057 13.5418 7.43134 12.6419C7.29211 11.742 7.42926 10.8194 7.82328 10.0052C8.2173 9.19108 8.84813 8.52688 9.62605 8.10709C10.404 7.6873 11.2893 7.5333 12.1563 7.66699C13.0406 7.80337 13.8592 8.23191 14.4914 8.88932C15.1235 9.54674 15.5356 10.3982 15.6667 11.3178Z" stroke="white" stroke-width="1.5" stroke-linecap="round" stroke-linejoin="round"/>
</svg>
