<svg width="14" height="25" viewBox="0 0 14 25" fill="none" xmlns="http://www.w3.org/2000/svg">
<path d="M10.25 7.09375C10.25 6.19792 9.95333 5.47917 9.35999 4.9375C8.76666 4.39583 7.98 4.125 7 4.125C6.39583 4.125 5.84916 4.25542 5.35999 4.51625C4.87083 4.77708 4.44875 5.15708 4.09375 5.65625C3.76041 6.13542 3.30708 6.41167 2.73374 6.485C2.16041 6.55833 1.66583 6.40708 1.24999 6.03125C0.958328 5.76042 0.797078 5.42708 0.766245 5.03125C0.735411 4.63542 0.834161 4.26042 1.06249 3.90625C1.72916 2.90625 2.57833 2.13042 3.60999 1.57875C4.64166 1.02708 5.77166 0.750833 7 0.75C9.02083 0.75 10.6617 1.32292 11.9225 2.46875C13.1833 3.61458 13.8133 5.11458 13.8125 6.96875C13.8125 7.90625 13.6146 8.75 13.2187 9.5C12.8229 10.25 12.0937 11.1354 11.0312 12.1562C10.2604 12.8854 9.73958 13.4533 9.46875 13.86C9.19791 14.2667 9.02083 14.73 8.9375 15.25C8.85416 15.75 8.64041 16.1667 8.29625 16.5C7.95208 16.8333 7.54083 17 7.0625 17C6.58416 17 6.17291 16.8387 5.82874 16.5162C5.48458 16.1938 5.31249 15.7925 5.31249 15.3125C5.31249 14.5 5.48958 13.7554 5.84375 13.0787C6.19791 12.4021 6.79166 11.6883 7.625 10.9375C8.6875 10 9.39083 9.27625 9.735 8.76625C10.0792 8.25625 10.2508 7.69875 10.25 7.09375ZM7 24.5C6.3125 24.5 5.72416 24.2554 5.235 23.7663C4.74583 23.2771 4.50083 22.6883 4.49999 22C4.49916 21.3117 4.74416 20.7233 5.235 20.235C5.72583 19.7467 6.31416 19.5017 7 19.5C7.68583 19.4983 8.27458 19.7433 8.76625 20.235C9.25791 20.7267 9.5025 21.315 9.5 22C9.4975 22.685 9.25291 23.2738 8.76625 23.7663C8.27958 24.2588 7.69083 24.5033 7 24.5Z" fill="url(#paint0_linear_289_50)"/>
<defs>
<linearGradient id="paint0_linear_289_50" x1="13.6014" y1="-5.38541" x2="1.26888" y2="-5.12634" gradientUnits="userSpaceOnUse">
<stop stop-color="#F5D49A"/>
<stop offset="0.3" stop-color="#FFB942"/>
<stop offset="0.67" stop-color="#FFD48B"/>
<stop offset="1" stop-color="#FFB433"/>
</linearGradient>
</defs>
</svg>
