<svg width="30" height="30" viewBox="0 0 30 30" fill="none" xmlns="http://www.w3.org/2000/svg">
<path d="M18.75 3.75H15V25H18.75V18.125H19.8825C20.1071 18.125 20.3275 18.1854 20.5206 18.3C20.7137 18.4146 20.8724 18.5791 20.98 18.7762L24.02 24.3487C24.1276 24.5459 24.2863 24.7104 24.4794 24.825C24.6725 24.9396 24.8929 25 25.1175 25H28.75L23.75 16.25L28.75 10H25C24.8059 10 24.6146 10.0452 24.441 10.132C24.2674 10.2187 24.1164 10.3448 24 10.5L21 14.5C20.8836 14.6552 20.7326 14.7812 20.559 14.868C20.3854 14.9548 20.1941 15 20 15H18.75V3.75Z" stroke="white" stroke-linejoin="round"/>
<path d="M5.625 13.75C6.1325 11.9312 9.58375 13.125 10.625 13.75L12.5 11.875C12.5 11.875 10.9212 10 7.5 10C4.91875 10 1.6925 10.5237 1.6925 14.8987C1.6925 19.2737 9.635 18.3675 8.38625 21.2475C7.66875 22.9012 3.9475 21.3863 2.6975 20.5538L1.25 23.3975C2.29125 24.0225 4.875 25 6.875 25C9.115 25 12.5 23.6412 12.5 19.6512C12.5 15.6625 4.9875 16.0438 5.625 13.7513" stroke="white" stroke-linecap="round" stroke-linejoin="round"/>
</svg>
