<svg width="26" height="26" viewBox="0 0 26 26" fill="none" xmlns="http://www.w3.org/2000/svg">
<path d="M24.25 23H23V4.25C23 3.91848 22.8683 3.60054 22.6339 3.36612C22.3995 3.1317 22.0815 3 21.75 3C21.4185 3 21.1005 3.1317 20.8661 3.36612C20.6317 3.60054 20.5 3.91848 20.5 4.25V23H18V9.25C18 8.91848 17.8683 8.60054 17.6339 8.36612C17.3995 8.1317 17.0815 8 16.75 8C16.4185 8 16.1005 8.1317 15.8661 8.36612C15.6317 8.60054 15.5 8.91848 15.5 9.25V23H13V14.25C13 13.9185 12.8683 13.6005 12.6339 13.3661C12.3995 13.1317 12.0815 13 11.75 13C11.4185 13 11.1005 13.1317 10.8661 13.3661C10.6317 13.6005 10.5 13.9185 10.5 14.25V23H8V19.25C8 18.9185 7.8683 18.6005 7.63388 18.3661C7.39946 18.1317 7.08152 18 6.75 18C6.41848 18 6.10054 18.1317 5.86612 18.3661C5.6317 18.6005 5.5 18.9185 5.5 19.25V23H3V1.75C3 1.41848 2.8683 1.10054 2.63388 0.866116C2.39946 0.631696 2.08152 0.5 1.75 0.5C1.41848 0.5 1.10054 0.631696 0.866116 0.866116C0.631696 1.10054 0.5 1.41848 0.5 1.75V24.25C0.5 24.5815 0.631696 24.8995 0.866116 25.1339C1.10054 25.3683 1.41848 25.5 1.75 25.5H24.25C24.5815 25.5 24.8995 25.3683 25.1339 25.1339C25.3683 24.8995 25.5 24.5815 25.5 24.25C25.5 23.9185 25.3683 23.6005 25.1339 23.3661C24.8995 23.1317 24.5815 23 24.25 23Z" fill="url(#paint0_linear_289_58)"/>
<defs>
<linearGradient id="paint0_linear_289_58" x1="25.0956" y1="-5.95831" x2="1.49737" y2="-5.05625" gradientUnits="userSpaceOnUse">
<stop stop-color="#F5D49A"/>
<stop offset="0.3" stop-color="#FFB942"/>
<stop offset="0.67" stop-color="#FFD48B"/>
<stop offset="1" stop-color="#FFB433"/>
</linearGradient>
</defs>
</svg>
