<svg width="26" height="26" viewBox="0 0 26 26" fill="none" xmlns="http://www.w3.org/2000/svg">
<g clip-path="url(#clip0_289_53)">
<path d="M25.0345 13.958C24.8512 16.2618 24.0104 18.4646 22.612 20.3046C21.2136 22.1446 19.3164 23.5445 17.1458 24.338C14.9753 25.1315 12.6225 25.2852 10.3671 24.781C8.11172 24.2767 6.04849 23.1356 4.42255 21.4932C2.7966 19.8508 1.67628 17.7762 1.19469 15.5159C0.713101 13.2555 0.890485 10.9045 1.70577 8.74196C2.52105 6.57946 3.93996 4.69644 5.79393 3.31662C7.64789 1.9368 9.85898 1.11818 12.1645 0.958008" stroke="url(#paint0_linear_289_53)" stroke-width="2" stroke-linecap="round" stroke-linejoin="round"/>
<path d="M18.1817 15.0244C17.8463 15.8876 17.3011 16.6536 16.5953 17.2531C15.8894 17.8526 15.0453 18.2667 14.1393 18.458C13.2332 18.6493 12.2937 18.6117 11.4058 18.3487C10.5179 18.0856 9.70956 17.6054 9.0539 16.9514C8.39824 16.2974 7.91593 15.4903 7.65059 14.6031C7.38525 13.7159 7.34525 12.7765 7.5342 11.8699C7.72315 10.9634 8.1351 10.1182 8.73279 9.41086C9.33047 8.70351 10.0951 8.1563 10.9574 7.81871M13.0002 13.0001L17.6431 8.35728M17.6431 8.35728L21.3574 9.28585L25.0717 5.57157L21.3574 4.643L20.4288 0.928711L16.7145 4.643L17.6431 8.35728Z" stroke="url(#paint1_linear_289_53)" stroke-width="2" stroke-linecap="round" stroke-linejoin="round"/>
</g>
<defs>
<linearGradient id="paint0_linear_289_53" x1="24.6446" y1="-5.27138" x2="1.89132" y2="-4.40195" gradientUnits="userSpaceOnUse">
<stop stop-color="#F5D49A"/>
<stop offset="0.3" stop-color="#FFB942"/>
<stop offset="0.67" stop-color="#FFD48B"/>
<stop offset="1" stop-color="#FFB433"/>
</linearGradient>
<linearGradient id="paint1_linear_289_53" x1="24.7861" y1="-3.63072" x2="8.12134" y2="-2.99351" gradientUnits="userSpaceOnUse">
<stop stop-color="#F5D49A"/>
<stop offset="0.3" stop-color="#FFB942"/>
<stop offset="0.67" stop-color="#FFD48B"/>
<stop offset="1" stop-color="#FFB433"/>
</linearGradient>
<clipPath id="clip0_289_53">
<rect width="26" height="26" fill="white"/>
</clipPath>
</defs>
</svg>
